<svg width="64" height="64" fill="none" xmlns="http://www.w3.org/2000/svg"><rect width="64" height="64" rx="4" fill="#fff"/><path d="M30.943 3.046c-1.074.125-1.756.364-1.959.7-.175.287-.438 1.706-.83 4.435l-.225 1.613.263.364c1.124 1.568 2.369 2.794 3.134 3.089.64.253 1.267-.056 2.36-1.157a15.48 15.48 0 0 0 1.65-1.969l.235-.327-.226-1.585c-.41-2.877-.659-4.204-.848-4.48-.267-.402-1.217-.664-2.54-.706a9.49 9.49 0 0 0-1.014.023zM26.86 9.702c-.419.17-.71.424-1.046.913-.161.235-.516.945-.516 1.032 0 .028.364-.083.866-.272l.876-.332a3.771 3.771 0 0 0-.152-.36c-.088-.193-.161-.377-.161-.41 0-.036.115-.175.253-.313.378-.373.341-.452-.12-.258zm9.431-.06c-.018.028.05.12.157.208.101.087.23.22.281.295l.097.133-.17.374c-.093.202-.162.378-.153.387.037.037 1.724.659 1.743.645.041-.037-.457-.982-.655-1.244-.23-.305-.608-.623-.867-.724-.248-.102-.4-.13-.433-.074z" fill="#000"/><path d="m27.293 10.043-.35.148c-.014.013.087.262.22.553.134.29.236.544.227.562-.014.023-.065.037-.11.037-.047 0-.102.018-.116.046-.014.023.01.046.055.046.157 0 .373.17.429.346.189.567-.553.963-.922.493-.138-.17-.124-.47.028-.654.069-.079.115-.153.106-.162-.023-.023-1.12.355-1.355.466-.176.083-.185.101-.24.387-.369 2-.443 4.65-.157 5.683.046.17.125.355.17.406.13.147 1.171.825 1.757 1.148.281.156.737.373 1.014.488.576.235.535.268-.088.06a9.115 9.115 0 0 1-1.968-.982c-.29-.193-.54-.336-.553-.327-.037.042.087.58.189.811.074.18.083.245.041.397-.087.318-.027.447.29.659.213.134.337.184.471.184.097 0 1.014.143 2.033.318l1.853.314.106-.166a.54.54 0 0 1 .322-.235l.217-.07-.161-.363a3.734 3.734 0 0 1-.157-.415c0-.028.106-.111.235-.19l.23-.138-.013-.368-.014-.37.184-.091c.134-.065.277-.093.507-.093.23 0 .374.028.507.093l.185.092-.014.369-.014.368.23.139c.13.078.236.161.236.189 0 .027-.074.212-.157.415l-.162.364.171.06c.18.06.378.248.378.36 0 .036.046.064.115.064.152 0 .42.276.484.493.032.106.046.488.037.977l-.014.802-.124.092a.832.832 0 0 1-.378.115c-.208.019-.263.042-.346.148-.087.12-.087.143-.027.263.11.207.087.534-.042.691l-.115.134.133.05a.5.5 0 0 1 .217.19l.088.138 1.783-1.236c1.43-.99 1.817-1.24 1.955-1.253.161-.014.17-.028.226-.23.069-.287.3-.775.484-1.029.143-.198.147-.226.184-.857.023-.355.05-.668.065-.687.013-.023.004-.138-.023-.258-.042-.189-.037-.249.041-.429.102-.24.221-.77.18-.81-.014-.015-.217.105-.456.266-.521.36-1.08.66-1.61.876-.377.157-1.096.378-1.046.323.014-.014.231-.106.48-.207.862-.346 2.609-1.393 2.835-1.697.046-.064.129-.313.175-.553.106-.507.175-1.585.106-1.627-.028-.018-.18.041-.341.129-1.49.802-3.393-.097-3.72-1.751-.032-.157-.06-.19-.194-.231-.313-.092-.46-.267-.46-.544 0-.258.24-.493.493-.493h.184l.194-.396c.332-.664.81-1.074 1.548-1.314l.37-.125-.208-.05-.263-.074c-.065-.023-.037-.097.276-.76.093-.19.153-.36.134-.374a3.407 3.407 0 0 0-.364-.147l-.337-.125-.28.424c-.955 1.415-2.08 2.683-2.84 3.185a3.184 3.184 0 0 1-.627.314c-.346.11-.53.096-.954-.088-.72-.309-1.964-1.595-3.01-3.116-.553-.802-.456-.733-.848-.59zm9.067 1.549c-.701.198-1.296.678-1.605 1.295a2.526 2.526 0 0 0 .48 2.904 2.395 2.395 0 0 0 1.793.724 2.394 2.394 0 0 0 1.765-.752c.466-.474.66-.945.692-1.654.018-.434.004-.526-.102-.844a2.42 2.42 0 0 0-.7-1.092 2.418 2.418 0 0 0-1.037-.576c-.305-.083-1-.083-1.286-.005zm-12.676.424a4.99 4.99 0 0 0-.669.267c-.41.203-.419.208-1.046.24-.346.014-.654.046-.682.065-.046.027.005.18.198.599l.258.558-.11.294c-.25.66-.438 1.715-.438 2.448v.392l-.277.364-.276.364.202.12c.3.175.724.336 1.171.447.738.18 2.033.115 2.692-.143.115-.041.12-.055.078-.235-.166-.737-.23-2.461-.129-3.485.056-.562.235-1.585.337-1.922.037-.124.055-.253.041-.285-.055-.153-.894-.208-1.35-.088zm15.086-.041c-.143.027-.133.06.06.248.245.226.503.646.627 1 .138.41.148 1.148.018 1.53a2.807 2.807 0 0 1-.437.849c-.13.161-.143.212-.143.484 0 .323-.116 1.429-.185 1.724-.037.166-.027.18.083.221.66.258 1.955.323 2.692.143.447-.11.871-.272 1.171-.447l.203-.12-.277-.364-.276-.364v-.383c-.005-.733-.194-1.807-.434-2.447l-.115-.304.258-.563c.19-.41.24-.567.199-.595-.028-.018-.337-.05-.683-.064-.627-.032-.636-.037-1.046-.24a4.394 4.394 0 0 0-.691-.272c-.254-.064-.784-.083-1.024-.036zm-17.548 6.268a5.737 5.737 0 0 0-.073.475 5.946 5.946 0 0 0 .608 3.42c.124.254.249.452.286.452.18 0 .295-.088.323-.25.046-.248.419-.958.65-1.239.4-.493 1.06-.816 1.663-.816.208 0 .295-.018.29-.06 0-.027-.036-.46-.082-.954-.056-.64-.092-.894-.134-.885-.032.005-.355.032-.724.065-.81.069-1.604.009-2.304-.17l-.47-.116a.286.286 0 0 0-.033.078zm20.508.046c-.632.166-1.499.226-2.282.162l-.7-.07c-.08-.013-.25 2-.194 2.227.041.152.055.161.202.147l.162-.014-.162.083c-.235.12-1.06.964-1.235 1.268-.133.23-.378.848-.378.963 0 .023.06.042.13.042.363 0 .986.253 1.34.544.655.535.987 1.77.706 2.627l-.092.29.096-.032c.24-.069.922-.465 1.3-.751l.41-.309.314-1.125.309-1.129-.07-.221c-.207-.645-.917-1.332-1.972-1.908-.429-.235-.3-.222.18.023.673.336 1.29.848 1.604 1.318l.12.175.253-.52a6.026 6.026 0 0 0 .58-3.361c-.06-.475-.082-.553-.151-.549-.033.005-.24.06-.47.12zm-10.072.738c-.065.009-.207.05-.318.092l-.198.074.018.364.023.369-.226.138c-.262.161-.262.161-.041.654l.138.305h1.438l.139-.305c.22-.493.22-.493-.042-.654l-.23-.143.023-.364.027-.364-.203-.074c-.253-.088-.4-.115-.548-.092zm-7.306 1.35c-.834.175-1.452.747-1.816 1.701-.249.655-.29 1.268-.12 1.84.083.28.235.4.908.723.544.263.973.387 1.466.424l.392.028-.378-.355c-.802-.752-.945-1.526-.466-2.517.254-.53.59-.862 1.116-1.11.212-.098.424-.18.47-.18.235-.005.203-.084-.106-.29-.42-.291-.908-.374-1.466-.264zm1.521.641a2.413 2.413 0 0 0-1.678 1.756 1.906 1.906 0 0 0 .268 1.489c.175.254.65.7.87.811l.167.088-.456-.014c-.494-.018-1.024-.12-1.356-.263-.147-.064-.212-.073-.24-.032-.055.088-.128.678-.18 1.378-.073 1.056-.183 1.549-.783 3.434-.52 1.641-.677 2.254-.81 3.2-.093.654-.088 1.737.013 2.47.06.451.078.926.078 1.936 0 1.553-.064 2.18-.415 3.872-.483 2.355-.447 2.12-.451 3.18 0 .535.023 1.134.055 1.337.097.627.203 1.157.24 1.221.032.05.115.037.447-.06a14.2 14.2 0 0 1 1.899-.42c.263-.036.484-.078.493-.082.023-.023-.249-1.337-.392-1.918-.193-.76-.253-1.272-.22-1.922.027-.544.137-1.074.29-1.364.064-.125.055-.157-.166-.645-.125-.282-.231-.526-.226-.54 0-.018.124.212.272.512l.267.548-.11.235c-.167.374-.254.872-.259 1.485-.004.636.042.959.29 1.982.305 1.281.567 3.01.687 4.54.07.857.065.843.259 1.056.22.248.483.331 1.106.36.83.04 1.53-.144 1.936-.503a1.88 1.88 0 0 1 .378-.245c.438-.189.544-.567.304-1.05-.12-.236-.125-.254-.092-.858.05-1.014.235-2.24.484-3.217.189-.733.253-1.259.253-2.088 0-.475-.023-.927-.06-1.102-.05-.272-.05-.3.032-.392.365-.396.162-.714-.497-.77-.397-.036-.715-.152-1.153-.433-.262-.166-.332-.24-.525-.58-.88-1.517-1.835-1.964-2.849-1.323-.267.165-.723.65-.894.94-.074.12-.138.193-.147.166-.028-.088.318-.567.627-.871l.29-.29-.12-.54c-.41-1.816-.54-4.24-.318-5.835.175-1.245.576-2.296 1.106-2.886.198-.221.208-.244.134-.3-.074-.055-.037-.129.498-.94.682-1.037.728-1.157.682-1.83l-.028-.46-.161-.028c-.088-.019-.115-.033-.065-.037.056 0 1.134-.088 2.397-.19l2.406-.184c.083 0 .102-.023.102-.152 0-.078.037-.207.083-.28.078-.135.078-.14-.023-.24-.088-.088-.106-.157-.106-.374 0-.166.027-.309.069-.369.064-.092.06-.11-.07-.235-.128-.129-.138-.166-.138-.456 0-.235.023-.341.093-.429.082-.11.082-.115 0-.207a.505.505 0 0 1-.097-.29c-.01-.111-.028-.208-.042-.217-.087-.056-3.65-.623-3.885-.618-.157 0-.41.037-.563.083z" fill="#000"/><path d="M30.547 21.248c-.116.12-.134.171-.134.397s.018.277.134.392l.129.133-.106.093c-.134.115-.175.272-.143.539.028.244.124.369.327.415.13.027.134.032.046.069-.355.129-.322.806.042.912.078.024.11.047.069.047-.17.009-.267.175-.267.442 0 .194.023.277.092.346.087.087.152.092 1.014.092s.926-.005 1.014-.092c.069-.07.092-.152.092-.346 0-.267-.101-.433-.263-.442-.046 0-.009-.023.079-.056.189-.064.276-.216.276-.474 0-.208-.138-.43-.267-.438-.042 0-.01-.028.078-.06.23-.083.328-.23.328-.498 0-.244-.06-.392-.19-.489-.073-.05-.069-.064.056-.189.115-.12.133-.17.133-.396s-.018-.277-.133-.396l-.134-.134H30.68l-.133.134z" fill="#000"/><path d="M33.137 21.875c-.05.245-.05.355-.004.59.046.226.046.332.009.448-.032.082-.055.336-.055.567v.414l.23-.023c.401-.041.415-.069.41-.954-.004-.83-.032-.982-.24-1.203-.207-.221-.28-.189-.35.161zm1.858 2.512-1.793 1.24-.037.245a.934.934 0 0 1-.124.364c-.088.12-.088.124 0 .203.198.18.156.686-.07.898-.1.097-.105.116-.046.203.042.056.07.203.07.355 0 .212-.023.29-.111.397-.11.129-.11.133-.023.24.05.064.087.18.087.285 0 .097.019.18.042.18.023 0 1.055-.332 2.295-.733l2.849-.927.668-.22c.046-.015.056-.01.023.022-.023.028-.16.083-.3.13a1.64 1.64 0 0 0-.285.11c-.018.014.115.253.29.53.3.461.323.512.25.562-.075.056-.065.083.133.3.54.6.922 1.613 1.115 2.968.116.77.111 2.77 0 3.734a21.483 21.483 0 0 1-.355 2.157l-.096.406.295.29c.318.314.654.78.627.867-.01.028-.074-.046-.148-.166-.17-.29-.627-.775-.894-.94-.493-.314-1.056-.365-1.517-.148-.345.166-.958.816-1.235 1.314-.295.525-.438.663-.963.926-.355.175-.484.217-.793.244-.678.056-.885.37-.516.77.083.093.083.125.036.369-.165.88-.087 2.056.231 3.406.198.844.341 1.715.415 2.559.074.852.064 1.064-.07 1.327-.239.475-.124.857.31 1.046.11.051.276.157.378.245.405.36 1.106.544 1.935.502.623-.028.885-.11 1.107-.36.193-.212.184-.165.28-1.262.135-1.595.36-3.07.646-4.241.254-1.046.304-1.374.304-2.028 0-.664-.078-1.143-.258-1.53l-.11-.245.272-.539c.147-.3.272-.53.272-.512.004.014-.097.258-.226.535l-.226.507.11.281c.24.59.319 1.53.185 2.333-.037.225-.139.714-.226 1.083-.23.959-.576 2.968-.526 3.024.056.055 1.872-.378 2.646-.632l.42-.138.05-.24c.217-.982.31-2.157.24-2.964-.05-.599-.055-.617-.346-2.023-.36-1.72-.46-2.439-.53-3.646a17.42 17.42 0 0 1 .12-2.927c.19-1.526-.028-2.978-.806-5.389-.53-1.654-.715-2.387-.766-3.042-.05-.604.01-.576-.603-.272-.415.208-.563.3-.65.433-.152.222-.19.176-.046-.055.318-.502.433-1.226.29-1.83-.226-.954-.834-1.562-1.756-1.756-.692-.143-.521-.221-2.54 1.175zm-4.697.498-4.02.314-.331.027.023.517c.023.405.05.557.134.742.285.599 1.078 1.106 2.184 1.392.374.092 1.512.29 1.701.29.106 0 .055-.083-.106-.18l-.161-.092v-.862c0-.691.014-.885.074-1.014.096-.203.373-.442.47-.415.055.019.101-.023.147-.124a.544.544 0 0 1 .212-.221l.143-.07-.143-.16c-.124-.14-.166-.157-.327-.144zm.332.452c-.281.152-.3.738-.028.931.074.05.07.065-.055.19-.115.119-.134.17-.134.396 0 .225.019.276.134.396.074.074.184.134.244.134.097 0 .092.009-.041.092-.277.166-.263.691.018.834l.148.074-.139.101c-.12.088-.133.125-.133.346 0 .175.027.281.087.355.088.11.097.11 1.01.11 1.101 0 1.115-.004 1.115-.442 0-.244-.014-.277-.147-.383-.116-.087-.134-.12-.07-.12.047 0 .134-.05.194-.115.088-.087.115-.161.115-.322 0-.258-.055-.37-.22-.457-.12-.069-.12-.069-.02-.073.06 0 .171-.06.245-.134.115-.12.134-.17.134-.396s-.019-.277-.139-.397c-.106-.11-.12-.143-.064-.166.17-.064.272-.58.157-.802-.111-.198-.258-.226-1.3-.226-.788.005-1.01.019-1.111.074zm-.604.489a.94.94 0 0 0-.207.336c-.056.207-.07 1.581-.014 1.669.05.078.35.198.493.198h.115l-.023-1.074c-.009-.585-.027-1.11-.037-1.162-.027-.147-.161-.133-.327.033zm-4.701 1.673c-.328.498-.586.908-.577.917.01.005.222.12.466.249.553.295 1.092.636 1.618 1.042l.405.309.208-.185c.493-.433.839-.511 2.226-.511 1.074 0 1.079 0 .996-.093-.102-.115-.148-.502-.07-.645.074-.143 0-.184-.322-.184-.41 0-1.406-.13-1.977-.258-.636-.143-1.236-.36-1.595-.577-.337-.198-.692-.585-.742-.802l-.042-.166-.595.904zm11.011.484-2.535.834c-.664.217-.899.309-.959.392l-.083.11h1.097c1.402 0 1.757.079 2.231.503l.199.175.396-.3a10.896 10.896 0 0 1 1.604-1.032l.466-.249c.041-.037-.623-.986-.687-.982-.037 0-.816.25-1.729.549zm-11.721.848c-.457.52-.848 1.53-1.047 2.701-.101.595-.143 2.485-.073 3.393.073.954.28 2.277.447 2.867.027.101.027.101.175.013.369-.22 1.244-.28 1.595-.11.438.216.982.77 1.48 1.502.294.438.456.549.953.66.425.092 1.236.078 1.305-.028.235-.369.553-2.19.705-4.033.13-1.568.13-1.53.005-1.563-.166-.041-.553-.369-.756-.64a2.049 2.049 0 0 1-.286-.568 3.764 3.764 0 0 0-.585-1.147c-.443-.618-.59-.752-1.047-.94l-.415-.171.014-.212c.014-.212.01-.217-.262-.447-.673-.558-1.904-1.434-2.015-1.434-.032 0-.12.07-.193.157zm13.56.152c-.511.35-.894.636-1.392 1.046l-.336.277.028.221.032.221-.263.116a5.114 5.114 0 0 1-.447.175c-.415.124-1.323 1.433-1.443 2.074-.064.341-.7 1.042-1.018 1.12-.102.028-.111.046-.093.244.014.116.037.42.051.673.097 1.738.401 3.748.673 4.476.078.203.11.244.235.267.254.051.885.028 1.19-.046.46-.106.645-.24.935-.673.549-.82 1.166-1.405 1.627-1.54.378-.11 1.176-.008 1.47.185l.107.07.096-.402c.111-.479.254-1.313.337-2.014.078-.678.083-3.171 0-3.733-.134-.95-.429-1.877-.78-2.476-.183-.318-.414-.59-.492-.59-.033 0-.263.139-.517.31zm-8.591.424c-1.18.028-1.286.037-1.535.138a2.29 2.29 0 0 0-.461.25c-.222.165-.447.57-.447.792 0 .138.018.152.327.277.175.069.327.12.336.11.01-.009.074-.129.148-.267.083-.152.203-.295.313-.369l.185-.12h3.272l3.393.033c.157.046.4.29.516.516.05.106.102.198.11.207.005.01.162-.041.337-.11.309-.12.328-.139.328-.272 0-.341-.295-.747-.687-.95-.415-.207-.567-.221-2.77-.244a154.04 154.04 0 0 0-3.365.01zm-1.176.936c-.124.064-.392.323-.392.373 0 .019.13.185.286.369.392.456.76 1.037.917 1.447.176.443.397.78.729 1.084.226.212.7.497.82.497.019 0 .046-.862.055-1.913l.014-1.913h-1.166c-.765.005-1.203.019-1.263.056zm4.31 1.857.028 1.913c.11 0 .58-.285.802-.488.34-.318.548-.632.746-1.125.17-.433.59-1.074.987-1.517l.263-.285-.134-.139c-.254-.267-.281-.271-1.54-.271h-1.152V32.2zm-1.812-1.793c-.018.019-.032 4.97-.032 10.994v10.965l.134.494c.189.686.442 1.415.558 1.6.17.28.276.257.456-.102.129-.263.369-.96.553-1.627l.097-.346-.01-10.993-.013-10.99-.858-.013c-.47-.005-.866.005-.884.018zm-.447 3.84c-.115.032-.115.041-.17.788-.152 2.148-.364 3.59-.664 4.517l-.097.3-.396.226-.392.226.212.106c.373.193.447.424.235.733-.115.175-.115.18-.06.58.07.512.028 1.96-.069 2.416l-.23 1.032c-.093.392-.175.83-.194.973l-.028.258.498.087c.277.047.78.153 1.116.23l.608.148V34.205l-.124.005c-.074.005-.18.018-.245.037z" fill="#000"/><path d="M32.718 40.861v6.656l.383.102c.456.124 1.18.258 1.64.304l.337.032-.032-.387c-.051-.645-.203-1.64-.35-2.3l-.231-1.037c-.12-.535-.17-1.922-.092-2.508.055-.4.055-.405-.06-.58-.212-.31-.138-.54.235-.733l.212-.106-.401-.226-.401-.226-.11-.369c-.157-.52-.328-1.396-.434-2.281-.101-.807-.235-2.365-.235-2.725 0-.202-.01-.216-.143-.244a1.805 1.805 0 0 0-.23-.028c-.083 0-.088.18-.088 6.656zm-4.854 9.422c-.129.143-.493.318-.885.433-.313.088-.479.102-1.083.102-.77.004-1.13-.065-1.323-.25-.055-.05-.133-.091-.166-.091-.037 0-.253.12-.474.267-1.033.678-1.628 1.392-1.77 2.116-.079.382.023.866.28 1.396.162.318.273.47.614.807.558.548.604.576.89.433a.74.74 0 0 0 .313-.272c.249-.428.88-.903 1.387-1.032.484-.13 1.033-.401 1.208-.6.129-.147.147-.202.147-.433 0-.24.014-.281.152-.415.084-.078.272-.189.425-.24.502-.174.788-.451.926-.903.106-.364.088-.447-.217-.908-.36-.535-.332-.511-.424-.41zm7.37.378c-.327.498-.35.576-.239.94.134.443.475.78.922.904.115.032.29.129.396.216.175.152.185.17.185.429 0 .244.018.295.152.443.17.198.719.47 1.203.599.507.129 1.138.603 1.387 1.032a.74.74 0 0 0 .314.272c.285.143.332.115.89-.433.34-.337.451-.489.612-.807.259-.53.36-1.014.282-1.396-.143-.72-.743-1.443-1.77-2.116-.222-.148-.438-.267-.475-.267-.033 0-.11.041-.166.092-.194.184-.553.253-1.323.249-.6 0-.77-.014-1.074-.102-.41-.115-.65-.23-.848-.396l-.138-.115-.31.456zm-6.005-.35c-.401.027-.724.073-.756.106-.037.036-.005.124.143.336.193.286.193.295.175.604a1.502 1.502 0 0 1-.475 1.005c-.194.18-.323.249-.797.447-.24.097-.277.161-.277.442 0 .383-.189.609-.751.895a5.065 5.065 0 0 1-.673.253 2.343 2.343 0 0 0-1.374 1.014c-.11.184-.52.41-.742.41-.392 0-1.314-.968-1.609-1.696-.35-.857-.248-1.608.31-2.35.12-.157.207-.286.197-.286-.009 0-.253.092-.539.202-3.143 1.213-3.798 2.867-1.678 4.246 1.78 1.161 5.14 1.986 9.108 2.235 1.038.07 3.48.07 4.518 0 5.277-.332 9.421-1.696 10.196-3.35.451-.96-.19-1.904-1.853-2.734-.323-.162-1.383-.6-1.452-.6-.01 0 .078.13.198.286.12.162.281.424.355.59.124.268.138.346.138.76 0 .683-.175 1.163-.65 1.776-.382.497-.908.921-1.143.921-.221 0-.632-.226-.742-.41a2.343 2.343 0 0 0-1.374-1.014 5.072 5.072 0 0 1-.673-.253c-.562-.286-.751-.512-.751-.895 0-.28-.037-.345-.277-.442-.544-.226-.654-.29-.848-.498a1.48 1.48 0 0 1-.424-.972c-.023-.31-.018-.314.19-.632l.216-.318-.152-.023c-.18-.032-1.595-.12-1.867-.12h-.194v2.245l-.18.64c-.359 1.268-.626 1.77-.949 1.77-.313 0-.562-.447-.936-1.677l-.165-.558-.019-1.212-.014-1.208-.355.005c-.193.004-.668.032-1.055.06zm-10.703 4.94c-.36.563-.636 1.14-.696 1.434-.07.318.023.77.24 1.185.198.378.944 1.125 1.479 1.475 2.047 1.341 5.44 2.25 9.62 2.572.977.074 4.213.074 5.162 0 3.393-.272 6.043-.857 8.228-1.816.95-.42 1.66-.885 2.259-1.489.52-.516.719-.834.834-1.35.092-.415.041-.678-.23-1.222-.203-.401-.678-1.185-.72-1.185-.013 0-.083.116-.156.259-.3.571-1.107 1.216-2.153 1.719-1.844.89-4.383 1.461-7.762 1.738-1.35.11-4.411.11-5.762 0-3.982-.328-6.974-1.107-8.725-2.273-.494-.327-1.005-.839-1.185-1.18-.078-.143-.148-.263-.161-.263-.014 0-.139.18-.272.397z" fill="#000"/><g clip-path="url(#a)"><path fill-rule="evenodd" clip-rule="evenodd" d="M32.537 8.277h.262a1.049 1.049 0 1 1-2.098 0h.262a.787.787 0 0 0 1.574 0zm-.787 2.098a2.36 2.36 0 1 0 0-4.72 2.36 2.36 0 0 0 0 4.72zm0-.262a2.098 2.098 0 1 0 0-4.196 2.098 2.098 0 0 0 0 4.196zm-.787-2.36a.262.262 0 1 0 0-.525.262.262 0 0 0 0 .525zm1.574 0a.262.262 0 1 0 0-.525.262.262 0 0 0 0 .525z" fill="#fff"/></g><defs><clipPath id="a"><path fill="#fff" transform="translate(29.39 5.655)" d="M0 0h4.72v4.72H0z"/></clipPath></defs></svg>