<svg width="128" height="128" fill="none" xmlns="http://www.w3.org/2000/svg"><path d="M108.043 113.41h-1.825v-10.961l-8.783-9.837h-.09V34.59h.09l11.428-10.931h.073v-18.7c0-1.635-1.269-2.959-2.83-2.959h-15.81v10.165l-8.875 2.939-8.176-2.94V2H53.757v10.165l-8.178 2.939-8.873-2.94V2H20.9c-1.564 0-2.83 1.324-2.83 2.959v18.7h.032l11.47 10.93v58.023l-8.786 9.837v10.961H18.96a2.957 2.957 0 0 0-2.734 1.829 2.958 2.958 0 0 0-.225 1.133v6.955a2.961 2.961 0 0 0 2.96 2.958h89.08a2.954 2.954 0 0 0 2.092-.866 2.964 2.964 0 0 0 .868-2.092v-6.955a2.968 2.968 0 0 0-2.962-2.957l.005-.005v0z" fill="#000" stroke="#000" stroke-width="2.684" stroke-linecap="square"/><path d="M21.94 23.665h84.561M23.68 113.41h78.994H23.68zm.348-10.957h78.299-78.299zm69.948-9.827h-62.29 62.29zM32.032 34.602h62.292-62.292z" stroke="#fff" stroke-width="2.684" stroke-linecap="round"/></svg>