<svg width="128" height="128" fill="none" xmlns="http://www.w3.org/2000/svg"><path d="M79.246 108.166c-7.428-14.746-6.677-41.013-6.057-51.19 11.748-.807 20.197-3.031 20.197-5.653 0-2.574-8.132-4.767-19.54-5.608 7.285-3.755 12.27-11.344 12.27-20.104C86.116 13.123 75.998 3 63.51 3 51.021 3 40.902 13.123 40.902 25.611c0 8.76 4.986 16.35 12.27 20.104-11.406.841-19.541 3.034-19.541 5.608 0 2.622 8.453 4.846 20.198 5.652.623 10.179 1.373 36.446-6.055 51.191C33.216 111.092 23 117.964 23 125.966h81.016c0-8.002-10.2-14.876-24.76-17.808l-.01.008z" fill="#000" stroke="#000" stroke-width="2.484" stroke-linejoin="round"/></svg>