<svg width="128" height="128" fill="none" xmlns="http://www.w3.org/2000/svg"><path d="M127.861 122.02c-1.075-.586-10.752-10.096-19.727-10.096-4.666 0-8.325 1.408-11.55 2.651-3.273 1.261-6.363 2.45-10.835 2.45-5.212 0-9.54-1.591-13.359-2.994-3.08-1.129-5.739-2.107-8.46-2.107-2.72 0-5.38.978-8.46 2.107-3.817 1.403-8.145 2.994-13.358 2.994-4.473 0-7.562-1.189-10.834-2.45-3.226-1.243-6.885-2.651-11.55-2.651-8.977 0-18.655 9.51-19.728 10.096 0 0 3.907-2.445 7.542-2.445 3.637 0 6.787 2.551 12.186 2.551 2.77 0 5.027.868 7.886 1.968 3.622 1.397 8.13 3.131 14.499 3.131 7.028 0 12.72-2.09 16.876-3.616 1.892-.696 4.036-1.484 4.941-1.484.909 0 3.051.788 4.943 1.484 4.157 1.526 9.848 3.616 16.876 3.616 6.369 0 10.877-1.734 14.5-3.131 2.857-1.1 5.115-1.968 7.886-1.968 5.399 0 9.491-2.551 12.184-2.551 2.692 0 7.587 2.443 7.587 2.443l-.045.002z" fill="#20201E"/><path d="M98.218 63.682c0-16.093-13.731-41.604-24.241-45.053a10.44 10.44 0 0 0-1.128-.301 4.81 4.81 0 0 0 3.143-4.508 4.809 4.809 0 0 0-4.808-4.808 4.811 4.811 0 0 0-4.811 4.808 4.81 4.81 0 0 0 2.568 4.252c-2.154.14-4.482.7-6.88 1.666-1.53-.696-3.052-1.194-4.552-1.467a4.807 4.807 0 1 0-3.98-.16c-.816.088-1.62.262-2.4.518-10.484 3.45-23.91 28.016-23.91 45.053 0 13.587 5.505 25.29 11.858 33.764.946 2.511 2.384 2.585 2.695 2.896l.003-.001c-.006.042-1.26 8.188-1.382 10.028-.19 2.836-.475 6.186-.475 6.186 6.933 3.049 14.53 4.82 22.781 4.82 8.254 0 15.476-1.942 22.406-4.99a130.6 130.6 0 0 0-1.097-7.933c-.295-1.779-1.314-8.115-1.314-8.115.31-.307 2.18-2.652 2.18-2.652 6.743-8.517 13.332-19.87 13.332-33.995l.012-.008z" fill="#fff" stroke="#20201E" stroke-width="4.152"/><path d="M41.945 100.344c5.623-2.423 12.087-4.547 20.464-4.547 8.374 0 14.837 2.122 20.459 4.541.308-.307 1.043-1.095 2.561-3.22-4.73-5.12-11.615-7.932-22.876-7.932-12.015 0-18.575 3.135-23.304 8.26.963 2.495 2.409 2.582 2.718 2.891l-.022.007z" fill="#000" stroke="#000" stroke-width="1.677"/><path d="M84.92 116.377c-6.933-3.046-14.023-4.556-22.276-4.556s-15.978 1.68-22.91 4.725c6.931 3.05 14.527 4.821 22.78 4.821 8.258 0 15.484-1.944 22.417-4.989l-.01-.001z" fill="#fff" stroke="#000" stroke-width="3.189" stroke-linejoin="bevel"/><path d="M84.731 97.677c4.366-7.298 10.111-21.063 2.933-44.487-6.024-19.653-23.77-38.83-36.677-34.569-11.449 3.78-23.911 30.851-23.911 45.053 0 13.587 5.502 25.29 11.856 33.764l45.813.224-.014.015z" fill="#000" stroke="#000" stroke-width="1.677"/><path d="M55.553 18.618a4.809 4.809 0 1 0 0-9.618 4.809 4.809 0 0 0 0 9.618z" fill="#000" stroke="#000" stroke-width="1.677"/><path d="m82.546 100.326-.002-.006c-5.622-2.417-12.09-4.443-20.459-4.443-8.375 0-14.834 2.028-20.458 4.449 0 0-1.26 8.187-1.383 10.031-.189 2.836-.474 6.186-.474 6.186 6.931-3.046 14.659-4.726 22.909-4.726 8.094 0 15.444 1.62 22.277 4.557-.246-2.267-.53-4.531-1.097-7.934-.309-1.789-1.324-8.137-1.324-8.137l.011.023z" fill="#000" stroke="#000" stroke-width="1.677" stroke-linejoin="bevel"/><path d="M82.34 111.302a66.604 66.604 0 0 0-19.752-2.999c-6.982 0-14.118 1.138-20.519 3.147" stroke="#fff" stroke-width="1.677" stroke-linecap="round" stroke-linejoin="bevel"/><path d="M84.249 95.888c-6.61-5.288-11.9-6.704-21.689-6.704-8.198 0-16.658 2.17-20.71 5.884m1.558 4.518c5.207-2.096 11.178-3.802 18.682-3.802 7.546 0 13.538 1.724 18.765 3.834l-37.447-.032z" stroke="#fff" stroke-width="1.677" stroke-linecap="round"/><path d="m74.047 54.737-2.236 2.253h-11.32V46.771l2.253-2.254-4.542-4.541-4.541 4.541 2.27 2.271V56.99H44.543l-2.253-2.253-4.542 4.541 4.541 4.542 2.288-2.271h11.355v12.456l-2.27 2.27 4.54 4.542 4.543-4.541-2.254-2.254V61.549h11.286l2.27 2.271 4.543-4.542-4.543-4.541z" fill="#fff" stroke="#000" stroke-width="1.677"/></svg>