<svg width="129" height="128" fill="none" xmlns="http://www.w3.org/2000/svg"><path d="M32.244 24.708s2.04-10.96 2.04-12.49c0-1.527 1.527-1.783 3.056.257 1.53 2.039 8.411 11.977 8.411 11.977l-13.512.24.005.016z" fill="#20201E" stroke="#20201E" stroke-width="2.684"/><path d="M124.489 107.487a128.36 128.36 0 0 0-2.787-14.13l-3.693-1.476 2.467-2.95a122.8 122.8 0 0 0-4.832-13.391l-3.494-.99 1.747-2.978a122.059 122.059 0 0 0-5.989-11.172l-3.257-.654 1.169-2.69a125.05 125.05 0 0 0-7.152-9.93l-3.448-.377.922-2.686a122.345 122.345 0 0 0-8.046-8.587l-3.453-.194.603-2.472c-6.15-5.567-10.5-8.275-10.5-8.275l-7.815 2.378s-3.737-2.04-6.795-4.078c0 0-2.04-6.795-2.716-10.534-.682-3.736-2.722-2.037-3.398-1.02-.682 1.02-7.732 8.835-7.732 8.835s-4.218-.578-7.219 0c-4.418.85-6.457 3.824-11.554 8.667-3.72 3.53-5.95 6.626-7.22 9.938-1.275 3.313.253 3.313-.255 6.37-.512 3.06-14.274 25.996-15.8 28.8C2.71 76.693-.982 85.265 6.279 90.71c2.036 1.53 3.568 2.296 4.84 2.802 0 0 2.04-.506 2.805-1.526.087-.114.167-.233.24-.357.023-.07.036-.072 0 0-.079.199-.259.945.524 1.883 1.275 1.53 2.913 1.419 3.824 1.53 1.357.172 3.82-1.018 5.862-4.077 2.038-3.058 3.312-4.079 4.842-5.862 1.527-1.784 9.963-5.731 13.254-11.214.763-1.272 2.547-.764 3.82.256 1.275 1.02 8.408 1.276 11.468-3.823 0 0 1.445 13.406-4.589 22.683-9.936 15.288-26.758 19.111-31.856 33.384h104.49c0-4.933-.261-9.669-.731-14.222l-3.475-1.835 2.941-2.849-.05.003h.001z" fill="#20201E" stroke="#20201E" stroke-width="2.684"/><path d="M69.838 31.62s44.511 33.301 44.511 93.446" stroke="#fff" stroke-width="2.684"/><path d="M13.328 92.542c.036-.055.018-.055 0 0z" stroke="#20201E" stroke-width="2.684"/><path d="M60.665 54.728c.847 9.512-3.57 16.308-3.738 16.902 0 0 10.705-5.52 11.725-12.827" stroke="#fff" stroke-width="2.684"/><path d="M56.914 71.622s7.136 3.485 12.403 1.275" stroke="#fff" stroke-width="2.684"/><path d="M13.088 92.91s4.758-6.118 6.118-8.92" stroke="#20201E" stroke-width="2.684"/><path d="m113.755 112.653 6.361-.753M42.392 36.455s-7.836.038-10.45 4.33c-3.568 5.864.511 6.627.511 6.627s4.075 1.276 6.88-2.547c2.985-4.07.508-6.627.508-6.627l2.536-1.783h.015zM4.43 79.655c2.803-.763 4.585-.51 5.858.257 0 0-1.273-3.824 1.02-7.137 2.296-3.313 6.12-3.567 9.428-9.937L4.43 79.655zm74.397-39.634 4.853-3.051-4.853 3.051zm9.946 10.957 4.853-2.28-4.853 2.28zm8.915 12.721 5.607-2.298-5.607 2.298zm7.152 14.56 5.845-2.04-5.845 2.04zm5.588 17.078 6.121-1.784-6.121 1.784z" stroke="#fff" stroke-width="2.684"/></svg>