<svg width="128" height="128" fill="none" xmlns="http://www.w3.org/2000/svg"><path d="M125.326 43.499a5.423 5.423 0 0 0-1.951-7.415 5.416 5.416 0 0 0-7.41 1.95 5.415 5.415 0 0 0 .95 6.66c-7.383 8.95-20.856 25.278-24.112 29.237a49.11 49.11 0 0 0-2.973-1.21c.291-3.036 2.425-26.214 3.559-38.54a5.422 5.422 0 0 0 5.37-4.057 5.422 5.422 0 0 0-10.496-2.717 5.423 5.423 0 0 0 2.727 6.153c-5.34 12.116-15.7 35.635-15.725 35.732-.005.023-.002.048-.007.071a78.263 78.263 0 0 0-2.892-.293c-.197-1.302-4.64-28.565-6.957-42.765a6.018 6.018 0 0 0 4.647-5.857 6.024 6.024 0 1 0-12.047 0 6.02 6.02 0 0 0 4.648 5.857c-2.305 14.135-6.72 41.213-6.952 42.742-1.009.08-2.017.179-3.022.296-.007-.034-.005-.063-.015-.095-.024-.097-10.386-23.618-15.722-35.733a5.422 5.422 0 0 0 2.726-6.152 5.42 5.42 0 0 0-10.495 2.717 5.418 5.418 0 0 0 5.369 4.056c1.132 12.313 3.259 35.442 3.558 38.528-.986.358-1.96.75-2.921 1.174a44875.331 44875.331 0 0 0-24.037-29.142 5.413 5.413 0 0 0 .956-6.66 5.42 5.42 0 1 0-9.362 5.465 5.417 5.417 0 0 0 6.269 2.444c4.408 11.48 18.637 48.431 19.18 48.94h.006c.01.064 1.408 9.229 1.563 12.269.154 3.023-1.162 10.42-1.066 10.463v.007c.001 0 .003-.003.005-.003 10.552 4.941 22.569 7.719 35.457 7.719 13.007 0 36.487-7.954 36.378-8.006-1.535-3.24-.956-22.453-.956-22.453.544-.513 14.959-37.154 19.482-48.936 2.322.727 4.945-.23 6.239-2.445" fill="#000"/><path d="M125.326 43.499a5.423 5.423 0 0 0-1.951-7.415 5.416 5.416 0 0 0-7.41 1.95 5.415 5.415 0 0 0 .95 6.66c-7.383 8.95-20.856 25.278-24.112 29.237a49.11 49.11 0 0 0-2.973-1.21c.291-3.036 2.425-26.214 3.559-38.54a5.422 5.422 0 0 0 5.37-4.057 5.422 5.422 0 0 0-10.496-2.717 5.423 5.423 0 0 0 2.727 6.153c-5.34 12.116-15.7 35.635-15.725 35.732-.005.023-.002.048-.007.071a78.263 78.263 0 0 0-2.892-.293c-.197-1.302-4.64-28.565-6.957-42.765a6.018 6.018 0 0 0 4.647-5.857 6.024 6.024 0 1 0-12.047 0 6.02 6.02 0 0 0 4.648 5.857c-2.305 14.135-6.72 41.213-6.952 42.742-1.009.08-2.017.179-3.022.296-.007-.034-.005-.063-.015-.095-.024-.097-10.386-23.618-15.722-35.733a5.422 5.422 0 0 0 2.726-6.152 5.42 5.42 0 0 0-10.495 2.717 5.418 5.418 0 0 0 5.369 4.056c1.132 12.313 3.259 35.442 3.558 38.528-.986.358-1.96.75-2.921 1.174a44875.331 44875.331 0 0 0-24.037-29.142 5.413 5.413 0 0 0 .956-6.66 5.42 5.42 0 1 0-9.362 5.465 5.417 5.417 0 0 0 6.269 2.444c4.408 11.48 18.637 48.431 19.18 48.94h.006c.01.064 1.408 9.229 1.563 12.269.154 3.023-1.162 10.42-1.066 10.463v.007c.001 0 .003-.003.005-.003 10.552 4.941 22.569 7.719 35.457 7.719 13.007 0 36.487-7.954 36.378-8.006-1.535-3.24-.956-22.453-.956-22.453.544-.513 14.959-37.154 19.482-48.936 2.322.727 4.945-.23 6.239-2.445" stroke="#000" stroke-width="2.684" stroke-linejoin="bevel"/><path d="M31.31 115.415c11.095-4.572 21.48-6.535 34.207-6.535 12.222 0 22.005 2.024 32.234 6.262l-66.442.273zm64.33-21.426c-9.025-3.468-20.082-5.509-32.027-5.509-12.052 0-23.198 2.078-32.266 5.601" fill="#000"/><path d="M95.64 93.99c-9.025-3.469-20.082-5.51-32.027-5.51-12.052 0-23.198 2.078-32.266 5.601m-.038 21.334c11.096-4.572 21.481-6.535 34.208-6.535 12.222 0 22.005 2.024 32.234 6.262l-66.442.273z" stroke="#fff" stroke-width="2.912" stroke-linecap="round"/><path d="M96.722 109.089c-9.99-3.301-20.159-5.696-31.609-5.696-11.667 0-22.91 2.464-33.45 5.884" stroke="#fff" stroke-width="2.912" stroke-linecap="round"/><path d="m59.044 96.754 5.034 2.516 5.05-2.516-5.05-2.517-5.034 2.517zm30.678 3.279-5.37 1.683-4.572-3.296 5.37-1.684 4.572 3.297zm-51.27 0 5.37 1.683 4.572-3.296-5.37-1.684-4.572 3.297z" fill="#fff"/></svg>