<svg width="128" height="128" fill="none" xmlns="http://www.w3.org/2000/svg"><path d="M75.985 44.164c2.686-1.589 3.82-3.712 3.82-6.05 0-.685.097-32.933.097-32.933H47.93s-.15 32.525-.15 32.933c0 2.355 1.669 4.494 4.391 6.086-1.925.28-3.83.623-5.712 1.037a53.258 53.258 0 0 1 8.488 6.735c3.729 3.628 6.814 7.645 9.237 11.977 2.422-4.332 5.509-8.35 9.234-11.977a53.59 53.59 0 0 1 8.496-6.74c-1.926-.416-3.912-.754-5.898-1.052l-.031-.016z" fill="#000" stroke="#000" stroke-width=".975"/><path d="M105.395 117.461c-1.978-3.966-2.032-9.152-1.154-12.654.9-3.604 9.435-10.422 9.435-10.422 15.035-14.624 18.477-35.47 7.691-46.56-10.79-11.087-31.72-8.214-46.754 6.412-4.49 4.37-7.933 9.292-10.288 14.346-2.352-5.054-5.8-9.977-10.288-14.346-15.032-14.626-35.965-17.499-46.754-6.411-10.785 11.088-7.34 31.936 7.69 46.56.68.658 8.171 6.817 9.072 10.42.899 3.6 1.024 8.774-1.138 12.788h.325c-.048.027-.095.045-.143.072 12.44 6.136 26.44 9.588 41.248 9.588 14.794-.02 28.596-3.674 41.047-9.81" fill="#000"/><path d="M25.267 116.726c11.974-5.588 25.212-8.688 39.295-8.688 13.529 0 26.513 3.322 38.097 8.04l-77.392.648zm83.146-23.195c-12.47-4.232-27.75-6.725-44.26-6.725-16.654 0-32.055 2.54-44.585 6.84" fill="#000"/><path d="M108.413 93.531c-12.47-4.232-27.75-6.725-44.26-6.725-16.654 0-32.055 2.54-44.585 6.84m5.699 23.08c11.974-5.588 25.212-8.688 39.295-8.688 13.529 0 26.513 3.322 38.097 8.04l-77.392.648z" stroke="#fff" stroke-width="3.174" stroke-linecap="round"/><path d="M77.296 7.506 50.467 31.554h26.829L50.467 7.505l26.829.001z" stroke="#fff" stroke-width="1.95" stroke-linejoin="bevel"/><path d="M100.609 108.207c-11.482-4.032-23.698-6.956-36.37-6.956-12.916 0-25.357 3.006-37.026 7.178" stroke="#fff" stroke-width="3.174" stroke-linecap="round"/><path d="m57.954 94.683 6.295 3.138 6.295-3.138-6.295-3.157-6.295 3.157zm-25.716 4.09 6.712 2.086 5.7-4.11-6.713-2.106-5.7 4.13zm64.043 0-6.733 2.086-5.699-4.11 6.712-2.106 5.72 4.13z" fill="#fff" stroke="#000" stroke-width=".997"/><path d="M50.467 7.506h26.84v24.048h-26.84V7.506z" stroke="#fff" stroke-width="1.95" stroke-linejoin="bevel"/><path d="M64.11 50.854c6.25 0 11.316-3.742 11.316-8.358 0-4.616-5.066-8.358-11.316-8.358-6.249 0-11.315 3.742-11.315 8.358 0 4.616 5.066 8.358 11.316 8.358z" stroke="#fff" stroke-width="1.95"/></svg>