<svg width="128" height="128" fill="none" xmlns="http://www.w3.org/2000/svg"><path d="M79.235 108.146c-7.427-14.745-6.676-41.007-6.056-51.18 11.745-.807 20.193-3.031 20.193-5.653 0-2.573-8.13-4.766-19.535-5.606 7.283-3.753 12.266-11.344 12.266-20.102C86.103 13.121 75.987 3 63.501 3S40.898 13.121 40.898 25.605c0 8.758 4.982 16.348 12.268 20.102-11.403.84-19.538 3.033-19.538 5.606 0 2.622 8.452 4.847 20.194 5.653.624 10.174 1.374 36.435-6.053 51.18C33.214 111.072 23 117.94 23 125.942h81c0-8.001-10.2-14.873-24.755-17.804l-.01.008z" fill="#fff" stroke="#000" stroke-width="3.495" stroke-linejoin="round"/></svg>