<svg width="128" height="128" fill="none" xmlns="http://www.w3.org/2000/svg"><path d="M125.005 120.207c-1.025-.558-10.259-9.632-18.824-9.632-4.452 0-7.943 1.344-11.022 2.529-3.122 1.202-6.07 2.338-10.337 2.338-4.974 0-9.103-1.517-12.748-2.856-2.938-1.079-5.476-2.011-8.073-2.011-2.595 0-5.132.932-8.07 2.011-3.644 1.339-7.773 2.856-12.748 2.856-4.267 0-7.216-1.136-10.338-2.338-3.078-1.185-6.57-2.529-11.023-2.529-8.563 0-17.798 9.073-18.822 9.632 0 0 3.93-2.332 7.197-2.332 3.268 0 6.474 2.433 11.626 2.433 2.644 0 4.798.83 7.526 1.881 3.457 1.33 7.758 2.986 13.835 2.986 6.705 0 12.137-1.994 16.103-3.45 1.806-.665 3.85-1.417 4.715-1.417.867 0 2.912.752 4.716 1.417 3.966 1.456 9.398 3.45 16.104 3.45 6.076 0 10.378-1.656 13.835-2.986 2.726-1.051 4.881-1.881 7.525-1.881 5.152 0 7.277-2.433 11.627-2.433 4.383 0 7.239 2.332 7.239 2.332h-.043v0z" fill="#fff" stroke="#20201E" stroke-width="4.152" stroke-linecap="round" stroke-linejoin="round"/><path d="M73.443 21.555c-.353-.115-.711-.211-1.074-.287a4.589 4.589 0 0 0 2.997-4.301 4.587 4.587 0 1 0-6.727 4.058C55.469 21.88 35.477 39.228 34.84 68.6c-.254 11.67 1.226 21.223 5.302 28.162l44.064-.314c6.442-8.127 12.367-18.415 12.367-31.904 0-17.946-13.1-39.71-23.13-43.003v.013h-.001z" fill="#fff" stroke="#20201E" stroke-width="4.152"/><path d="M86.642 54.543C81.797 38.735 69.008 23.259 57.73 21.215a4.587 4.587 0 0 0-1.732-8.835 4.585 4.585 0 0 0-2.064 8.683c-.778.083-1.545.248-2.289.493C41.64 24.85 28.828 46.971 28.828 64.547c0 12.965 5.252 24.133 11.314 32.218l44.065-.314c4.17-6.961 9.275-19.568 2.43-41.911l.004.003h.001z" fill="#fff" stroke="#20201E" stroke-width="4.152"/><path d="M84.064 114.839c-5.537-2.54-13.38-4.349-21.253-4.349-7.876 0-15.249 1.604-21.862 4.512 6.613 2.906 13.864 4.597 21.737 4.597 7.88 0 14.774-1.855 21.39-4.761l-.011.001z" fill="#fff" stroke="#000" stroke-width="3.189" stroke-linejoin="bevel"/><path d="m81.767 99.523-.004-.005c-5.365-2.306-11.537-4.24-19.522-4.24-7.992 0-14.156 1.935-19.522 4.245 0 0-1.202 7.811-1.318 9.574a391.463 391.463 0 0 1-.453 5.902c6.613-2.908 13.986-4.51 21.862-4.51 7.722 0 14.734 1.544 21.254 4.348a123.305 123.305 0 0 0-1.046-7.572c-.295-1.723-1.263-7.764-1.263-7.764l.012.022z" fill="#fff" stroke="#20201E" stroke-width="4.152" stroke-linejoin="bevel"/><path d="M40.94 115.003c6.614-2.908 13.987-4.511 21.863-4.511 7.721 0 14.734 1.545 21.253 4.349-.167-1.811-.568-2.94-.82-5.251-6.552-2.294-13.193-3.465-20.535-3.465-7.425 0-14.782 1.348-21.396 3.692-.033 2.036-.378 5.188-.378 5.188l.013-.002z" fill="#fff" stroke="#20201E" stroke-width="4.152" stroke-linejoin="bevel"/><path d="M42.713 99.523c5.366-2.308 11.535-4.285 19.529-4.336 6.806-.045 14.157 2.025 19.523 4.333.294-.295 1.54-.673 2.443-3.073-4.512-4.885-11.22-7.436-21.966-7.436-11.466 0-17.588 2.86-22.099 7.75.887 2.397 2.266 2.463 2.561 2.758l.01.004z" fill="#fff" stroke="#20201E" stroke-width="4.152"/><path d="M62.248 89.017v6.172" stroke="#000" stroke-width="3.189"/><path d="m73.657 56.005-2.15 2.15H60.705v-9.74l2.15-2.15-4.333-4.331-4.334 4.33 2.167 2.174v9.718H45.504l-2.15-2.151-4.334 4.334 4.333 4.334 2.167-2.167h10.835v11.901l-2.167 2.167 4.334 4.334 4.334-4.334-2.151-2.15V62.505H71.49l2.167 2.167 4.334-4.334-4.334-4.334z" fill="#fff" stroke="#000" stroke-width="2.422"/></svg>