<svg width="128" height="128" fill="none" xmlns="http://www.w3.org/2000/svg"><path d="M79.504 7H48.562v32.337c0 4.76 6.964 8.624 15.549 8.624 8.59 0 15.332-3.864 15.332-8.624L79.5 7h.003z" fill="#fff" stroke="#20201E" stroke-width="3.809"/><path d="M48.56 7h30.942v27.726H48.56V7z" fill="#fff" stroke="#20201E" stroke-width="3.809"/><path d="M79.504 7 48.56 34.724M48.56 7l30.944 27.724L48.56 7z" stroke="#20201E" stroke-width="3.809"/><path d="M103.989 115.58c-12.039-5.941-25.124-9.064-39.456-9.064-14.331 0-28.037 3.33-40.078 9.27 12.041 5.94 25.514 9.361 39.844 9.361 14.337.019 27.656-3.614 39.688-9.552l.002-.015z" fill="#fff" stroke="#20201E" stroke-width="3.809" stroke-linejoin="round"/><path d="M110.004 95.207a53.127 53.127 0 0 0 2.048-1.875c14.55-14.156 17.883-34.331 7.444-45.061-10.443-10.732-30.7-7.95-45.249 6.205-4.346 4.227-7.682 8.994-9.958 13.884-2.275-4.89-5.612-9.657-9.957-13.884C39.783 40.32 19.522 37.539 9.084 48.27-1.358 59 1.974 79.177 16.526 93.33a50.457 50.457 0 0 0 2.057 1.88c12.563-4.718 28.443-7.536 45.717-7.536 17.26 0 33.134 2.825 45.684 7.533l.02-.001z" fill="#fff" stroke="#20201E" stroke-width="3.809" stroke-linejoin="bevel"/><path d="M64.3 68.376c2.277-4.89 5.613-9.655 9.96-13.88 3.541-3.45 7.426-6.22 11.426-8.286-6.633-1.866-13.837-2.89-21.374-2.89-7.541 0-14.753 1.027-21.387 2.896 3.994 2.066 7.877 4.832 11.419 8.28 4.343 4.228 7.668 8.994 9.955 13.876l.002.006v-.002z" fill="#fff" stroke="#20201E" stroke-width="3.809"/><path d="m109.832 95.207-.008-.01c-12.556-4.712-28.427-7.527-45.686-7.527-17.274 0-33.153 2.82-45.715 7.537 0 0 6.026 4.72 6.898 8.206.87 3.483 1.244 8.479-.85 12.364 12.04-5.94 25.747-9.27 40.078-9.27 14.058 0 27.592 3.336 39.456 9.063-1.915-3.835-1.918-8.769-1.07-12.157.865-3.46 6.9-8.188 6.9-8.188l-.003-.018z" fill="#fff" stroke="#20201E" stroke-width="3.809" stroke-linejoin="bevel"/><path d="M24.46 115.791c12.038-5.94 25.746-9.27 40.077-9.27 14.058 0 27.59 3.336 39.455 9.064-.814-1.639-1.67-5.823-1.533-8.158-11.926-4.688-24.75-7.251-38.112-7.251-13.515 0-26.476 2.616-38.515 7.403.153 4.325-.462 6.497-1.365 8.188l-.008.024z" fill="#fff" stroke="#20201E" stroke-width="3.809" stroke-linejoin="bevel"/><path d="m58.42 94.092 5.958 2.98 5.938-2.98-5.938-2.978-5.958 2.978zm-24.351 3.883 6.342 1.979 5.4-3.901-6.341-1.98-5.401 3.902zm60.598 0-6.342 1.979-5.4-3.901 6.342-1.98 5.4 3.902z" fill="#000"/><path d="M64.3 51.846c6.05 0 10.954-3.62 10.954-8.087S70.35 35.67 64.3 35.67c-6.049 0-10.953 3.62-10.953 8.087s4.904 8.088 10.953 8.088z" fill="#fff" stroke="#20201E" stroke-width="3.809"/></svg>