<svg width="130" height="128" fill="none" xmlns="http://www.w3.org/2000/svg"><path d="M100.363 117.209c-10.668-4.988-22.359-7.607-35.265-7.607-12.906 0-25.418 2.86-36.435 7.848 10.666 4.984 22.767 7.789 35.675 7.789 12.925.018 25.022-3.042 36.03-8.018l-.006-.012h.001z" fill="#fff" stroke="#20201E" stroke-width="3.495" stroke-linejoin="bevel"/><path d="m99.571 94.824-.007-.011c-9.588-3.954-20.745-6.359-35.23-6.359-14.504 0-25.717 2.407-35.587 6.37 0 0 1.076 9.15 1.121 12.176.053 3.408-.9 10.39-.9 10.39a87.344 87.344 0 0 1 36.135-7.792c12.66 0 25.525 2.598 35.265 7.607-1.6-3.201-.792-22.367-.792-22.367l-.005-.014z" fill="#fff" stroke="#20201E" stroke-width="3.495" stroke-linejoin="bevel"/><path d="M29.007 117.332c10.37-4.932 23.19-7.734 36.097-7.734 12.658 0 23.285 1.785 35.264 7.606-.483-1.346-.805-5.525-.91-7.041a98.938 98.938 0 0 0-34.33-6.175c-12.167 0-24.41 2.358-35.392 6.377-.229 1.565-.721 6.946-.721 6.946l-.008.021z" fill="#fff" stroke="#20201E" stroke-width="3.495" stroke-linejoin="bevel"/><path d="M123.362 36.49a5.376 5.376 0 0 0-7.355 1.935 5.374 5.374 0 0 0 .944 6.609c-7.326 8.88-20.697 25.08-23.923 29.01a46.828 46.828 0 0 0-2.953-1.2c.291-3.014 2.408-26.01 3.53-38.242a5.38 5.38 0 0 0 5.33-4.023 5.379 5.379 0 0 0-10.413-2.698 5.375 5.375 0 0 0 2.706 6.103C85.93 46.008 75.65 69.343 75.626 69.44c-.006.023-.002.047-.007.071a80.87 80.87 0 0 0-2.873-.29c-.194-1.294-4.602-28.343-6.9-42.431a5.97 5.97 0 0 0 4.608-5.813 5.976 5.976 0 1 0-11.95 0 5.975 5.975 0 0 0 4.61 5.813c-2.287 14.024-6.667 40.89-6.897 42.408-1 .08-2 .178-2.996.295-.008-.035-.006-.064-.016-.095-.024-.097-10.305-23.434-15.6-35.456a5.378 5.378 0 0 0 2.704-6.103 5.378 5.378 0 0 0-10.411 2.694 5.373 5.373 0 0 0 5.326 4.024c1.124 12.218 3.234 35.167 3.531 38.228-.979.357-1.946.746-2.899 1.168a35823.543 35823.543 0 0 0-23.848-28.917 5.375 5.375 0 0 0-6.41-8.544 5.381 5.381 0 0 0-1.934 7.357 5.381 5.381 0 0 0 6.223 2.426c4.373 11.39 18.49 48.051 19.03 48.558 9.732-3.96 20.922-6.37 35.422-6.37 14.492 0 25.679 2.406 35.412 6.366.536-.507 14.839-36.866 19.326-48.554a5.377 5.377 0 0 0 6.221-2.426c1.442-2.565.581-5.859-1.986-7.355l.05-.003z" fill="#fff" stroke="#20201E" stroke-width="3.495"/><path d="m59.533 96.565 4.993 2.497 5.012-2.497-5.012-2.497-4.993 2.497zM39.1 99.801l5.328 1.652 4.536-3.27-5.327-1.653L39.1 99.8zm50.87.017-5.328 1.671-4.536-3.271 5.328-1.67 4.536 3.27z" fill="#000"/></svg>