<svg width="128" height="128" fill="none" xmlns="http://www.w3.org/2000/svg"><path d="M32.917 23.602s2.025-10.882 2.025-12.4c0-1.518 1.517-1.772 3.036.253C39.496 13.48 46.33 23.35 46.33 23.35l-13.417.252.004.001z" fill="#fff" stroke="#20201E" stroke-width="3.495"/><path d="M123.715 107.073a127.322 127.322 0 0 0-2.767-14.034l-3.667-1.463 2.448-2.93a121.552 121.552 0 0 0-4.798-13.298l-3.471-.98 1.717-2.935a121.6 121.6 0 0 0-5.945-11.094l-3.236-.65 1.163-2.67a124.209 124.209 0 0 0-7.102-9.861l-3.425-.375.914-2.667a121.783 121.783 0 0 0-7.991-8.529l-3.425-.192.598-2.454c-6.11-5.528-10.427-8.218-10.427-8.218l-7.76 2.363s-3.71-2.025-6.748-4.05c0 0-2.025-6.748-2.697-10.46-.677-3.711-2.7-2.024-3.377-1.012-.673 1.013-7.676 8.772-7.676 8.772s-4.187-.573-7.171 0c-4.384.846-6.409 3.797-11.474 8.605-3.688 3.507-5.902 6.581-7.166 9.87-1.266 3.29.251 3.29-.251 6.326-.51 3.037-14.176 25.812-15.692 28.596C2.77 76.517-.896 85.03 6.313 90.435c2.021 1.518 3.544 2.28 4.808 2.783 0 0 2.023-.503 2.782-1.516.087-.112.167-.23.238-.353.025-.068.037-.072 0 0-.077.198-.253.937.522 1.87 1.266 1.52 2.892 1.406 3.795 1.52 1.35.168 3.795-1.012 5.822-4.05 2.025-3.037 3.291-4.05 4.81-5.821 1.515-1.772 9.892-5.69 13.16-11.135.758-1.263 2.53-.76 3.793.254C47.31 75 54.395 75.253 57.431 70.19c0 0 1.435 13.314-4.555 22.525-9.868 15.184-26.57 18.978-31.633 33.152H125c0-4.898-.258-9.6-.725-14.124l-3.45-1.82 2.976-2.811-.086-.038z" fill="#fff" stroke="#20201E" stroke-width="3.495"/><path d="m113.858 110.943 6.334-.767m-49.944-79.71s44.199 33.07 44.199 92.791l-44.2-92.791zm-56.115 60.89c.037-.074.037-.074 0 0zm47.006-37.952c.843 9.446-3.544 16.195-3.712 16.784 0 0 10.63-5.481 11.641-12.738l-7.93-4.046zM57.433 70.2s7.086 3.46 12.316 1.267l-12.316-1.267zM13.896 91.703s4.724-6.075 6.076-8.858l-6.076 8.858zm29.116-56.427s-7.781.036-10.375 4.3c-3.543 5.822.504 6.58.504 6.58s4.049 1.267 6.833-2.53c2.965-4.041.506-6.579.506-6.579L43 35.275h.011zM5.298 78.54c2.784-.759 4.556-.505 5.82.254 0 0-1.264-3.796 1.01-7.087 2.281-3.29 6.075-3.544 9.366-9.87L5.298 78.541zm73.894-39.724 4.801-3.035-4.8 3.035zM89.069 49.7l4.8-2.277-4.8 2.277zm8.853 12.632 5.568-2.282-5.568 2.282zm7.083 14.44 5.823-2.027-5.823 2.026zm5.568 16.958 6.078-1.771-6.078 1.77z" stroke="#20201E" stroke-width="2.684"/></svg>