<svg width="99" height="128" fill="none" xmlns="http://www.w3.org/2000/svg"><path d="M93.827 126a2.961 2.961 0 0 0 2.089-.865 2.95 2.95 0 0 0 .863-2.088v-6.939a2.946 2.946 0 0 0-2.952-2.952H4.952a2.96 2.96 0 0 0-2.088.864A2.951 2.951 0 0 0 2 116.108v6.939A2.951 2.951 0 0 0 4.952 126h88.875z" fill="#fff" stroke="#20201E" stroke-width="3.495"/><path d="M6.774 102.222h85.233v10.936H6.774v-10.936z" fill="#fff" stroke="#20201E" stroke-width="3.495"/><path d="m92.007 102.221-8.764-9.823H15.537l-8.764 9.823h85.234z" fill="#fff" stroke="#20201E" stroke-width="3.495" stroke-linejoin="bevel"/><path d="M94.678 23.578 83.243 34.516H15.538L4.065 23.578h90.613z" fill="#fff" stroke="#20201E" stroke-width="3.495" stroke-linejoin="round"/><path d="M15.539 34.516h67.614v57.888H15.54V34.516z" fill="#fff" stroke="#20201E" stroke-width="3.495"/><path d="M91.892 2h-15.77v10.141l-8.85 2.932-8.161-2.932V2H39.67v10.141l-8.16 2.932-8.851-2.932V2H6.89C5.33 2 4.065 3.32 4.065 4.95v18.66h90.652V4.95C94.716 3.32 93.452 2 91.893 2h-.001v0z" fill="#fff" stroke="#20201E" stroke-width="3.495" stroke-linecap="square"/></svg>